<?xml version="1.0" encoding="utf-8"?>
<!-- Generator: Adobe Illustrator 25.4.1, SVG Export Plug-In . SVG Version: 6.00 Build 0)  -->
<svg version="1.1" id="Layer_1" xmlns="http://www.w3.org/2000/svg" xmlns:xlink="http://www.w3.org/1999/xlink" x="0px" y="0px"
	 viewBox="0 0 226.6 266.5" style="enable-background:new 0 0 226.6 266.5;" xml:space="preserve">
<style type="text/css">
	.st0{fill:none;stroke:#231F20;stroke-miterlimit:10;}
	.st1{fill:none;}
	.st2{font-family:'MyriadPro-Regular';}
	.st3{font-size:12px;}
	.st4{fill:#231F20;}
</style>
<g id="Layer_1_1_">
</g>
<g id="Layer_5">
</g>
<g id="Layer_3">
</g>
<g id="Layer_6">
</g>
<g id="Layer_4">
</g>
<path class="st0" d="M107.4,10c0,0.2-2.3,19.1,8.1,34.5c11.4,17,26.1,20.5,36.4,20.5h0c16.1,0,24.9-7.1,28.6-11.3
	c7.5-8.4,11-18,10.6-31.3"/>
<g>
	<g id="LRFnDg_00000015345776076502516580000001041063739489178767_">
		
			<image style="overflow:visible;" width="250" height="150" id="LRFnDg" xlink:href="59768875EDE4CFDF.png"  transform="matrix(0.5296 0 0 0.5296 83.0171 122.6665)">
		</image>
	</g>
	<g id="_x35_i4DJd_00000127027226451819794900000016237412857459880337_">
		
			<image style="overflow:visible;" width="252" height="67" id="_x35_i4DJd" xlink:href="59768875EDE4CFDA.png"  transform="matrix(0.5296 0 0 0.5296 82.4875 212.2989)">
		</image>
	</g>
	<rect x="95.8" y="198.6" class="st1" width="12.6" height="10.3"/>
	<text transform="matrix(1 0 0 1 95.8187 207.1131)" class="st2 st3">...</text>
	<rect x="147.1" y="198.6" class="st1" width="12.6" height="10.3"/>
	<text transform="matrix(1 0 0 1 147.1311 207.1131)" class="st2 st3">...</text>
	<rect x="203.3" y="198.6" class="st1" width="12.6" height="10.3"/>
	<text transform="matrix(1 0 0 1 203.2922 207.1131)" class="st2 st3">...</text>
</g>
<g>
	<g>
		<line class="st0" x1="146.7" y1="80.4" x2="146.7" y2="109.6"/>
		<g>
			<polygon class="st4" points="146.7,116.7 142.7,106.7 146.7,109.1 150.8,106.7 			"/>
		</g>
	</g>
</g>
<text transform="matrix(1 0 0 1 15.9832 41.0801)" class="st2 st3">wire.svg</text>
<text transform="matrix(1 0 0 1 17.1949 188.7449)" class="st2 st3">wire.csv</text>
</svg>
